<svg width="709" height="185" viewBox="0 0 709 185" fill="none" xmlns="http://www.w3.org/2000/svg">
<path d="M272.27 57.12C272.27 56.48 272.7 56.05 273.34 56.05H286.88C287.52 56.05 287.95 56.48 287.95 57.12V113.95C287.95 114.38 288.16 114.59 288.59 114.59H320.58C321.22 114.59 321.65 115.02 321.65 115.65V127.49C321.65 128.13 321.22 128.56 320.58 128.56H273.35C272.71 128.56 272.28 128.13 272.28 127.49V57.12H272.27Z" fill="#2F2725"/>
<path d="M355.73 57.12C355.94 56.48 356.37 56.05 357.12 56.05H370.55C371.3 56.05 371.72 56.48 371.94 57.12L396.46 127.49C396.67 128.13 396.46 128.56 395.72 128.56H381.86C381.12 128.56 380.69 128.24 380.47 127.49L376.31 114.8H350.93L346.88 127.49C346.67 128.24 346.24 128.56 345.49 128.56H331.52C330.78 128.56 330.56 128.13 330.78 127.49L355.73 57.12ZM372.04 101.48L363.83 76.1H363.51L355.3 101.48H372.04Z" fill="#2F2725"/>
<path d="M405.59 57.12C405.59 56.48 406.02 56.05 406.66 56.05H419.45C420.2 56.05 420.84 56.37 421.26 57.12L446.85 102.75H447.38V57.12C447.38 56.48 447.81 56.05 448.45 56.05H460.5C461.14 56.05 461.57 56.48 461.57 57.12V127.49C461.57 128.13 461.14 128.56 460.5 128.56H447.81C446.96 128.56 446.42 128.24 446 127.49L420.3 81.96H419.77V127.49C419.77 128.13 419.34 128.56 418.7 128.56H406.65C406.01 128.56 405.58 128.13 405.58 127.49V57.12H405.59Z" fill="#2F2725"/>
<path d="M475.16 57.12C475.16 56.48 475.59 56.05 476.23 56.05H503.2C515.89 56.05 524.74 61.49 528.26 72.36C529.54 76.41 530.18 80.47 530.18 92.3C530.18 104.13 529.54 108.19 528.26 112.24C524.74 123.12 515.89 128.55 503.2 128.55H476.23C475.59 128.55 475.16 128.12 475.16 127.48V57.12ZM491.47 114.59H499.68C506.93 114.59 511.3 112.46 513.12 106.59C513.86 104.46 514.29 101.69 514.29 92.3C514.29 82.91 513.86 80.15 513.12 78.01C511.31 72.15 506.94 70.01 499.68 70.01H491.47C491.04 70.01 490.83 70.22 490.83 70.65V113.94C490.83 114.37 491.04 114.58 491.47 114.58V114.59Z" fill="#2F2725"/>
<path d="M543.37 57.12C543.37 56.48 543.8 56.05 544.44 56.05H557.98C558.62 56.05 559.05 56.48 559.05 57.12V127.49C559.05 128.13 558.62 128.56 557.98 128.56H544.44C543.8 128.56 543.37 128.13 543.37 127.49V57.12Z" fill="#2F2725"/>
<path d="M593.75 128.56C593.11 128.56 592.68 128.13 592.68 127.49V70.66C592.68 70.23 592.47 70.02 592.04 70.02H573.7C573.06 70.02 572.63 69.59 572.63 68.95V57.12C572.63 56.48 573.06 56.05 573.7 56.05H627.33C627.97 56.05 628.4 56.48 628.4 57.12V68.95C628.4 69.59 627.97 70.02 627.33 70.02H608.99C608.56 70.02 608.35 70.23 608.35 70.66V127.49C608.35 128.13 607.92 128.56 607.28 128.56H593.74H593.75Z" fill="#2F2725"/>
<path d="M165.33 132.35C164.83 132.35 164.63 132.7 164.88 133.13L177.11 154.31C178.11 156.04 179.74 156.04 180.74 154.31L192.97 133.13C193.22 132.7 193.02 132.35 192.52 132.35H165.34H165.33Z" fill="#0084CA"/>
<path d="M233.78 56.16H124.06C122.07 56.16 121.25 57.57 122.25 59.3L136.69 84.32C136.94 84.75 137.55 85.1 138.05 85.1H187.27L181.58 94.95C181.33 95.38 181.33 96.09 181.58 96.52L197.38 123.89C197.63 124.32 198.04 124.32 198.29 123.89L235.58 59.3C236.58 57.57 235.76 56.16 233.77 56.16H233.78Z" fill="#0084CA"/>
<path d="M193.82 125.38L179.38 100.36C179.13 99.93 178.52 99.58 178.02 99.58H128.7L134.42 89.67C134.67 89.24 134.67 88.53 134.42 88.1L118.62 60.73C118.37 60.3 117.96 60.3 117.71 60.73L80.41 125.31C79.89 126.21 79.88 127.01 80.26 127.58C80.59 128.15 81.29 128.51 82.29 128.51H192C193.99 128.51 194.81 127.1 193.81 125.37L193.82 125.38Z" fill="#003B90"/>
<path d="M150.67 52.26C151.17 52.26 151.37 51.91 151.12 51.48L138.9 30.3C137.9 28.57 136.27 28.57 135.27 30.3L123.04 51.48C122.79 51.91 122.99 52.26 123.49 52.26H150.66H150.67Z" fill="#003B90"/>
</svg>
